<svg width="26" height="26" viewBox="0 0 26 26" fill="none" xmlns="http://www.w3.org/2000/svg">
<path d="M5.5 3.63194C2.75661 5.83113 1 9.21042 1 13C1 19.6274 6.37258 25 13 25C14.8485 25 16.5993 24.582 18.1632 23.8355M9 1.68282C10.2511 1.24062 11.5975 1 13 1C19.6274 1 25 6.37258 25 13C25 16.3212 23.6508 19.3273 21.4705 21.5" stroke="#445092" stroke-width="1.75" stroke-linecap="round"/>
<path d="M5.5496 6.42618L5.59879 3.60818C5.59889 3.60266 5.59449 3.59811 5.58897 3.59801L2.77097 3.54882" stroke="#445092" stroke-width="1.75" stroke-linecap="round"/>
<path d="M20.9301 19.0697L21.1757 21.8774C21.1762 21.8829 21.1811 21.887 21.1866 21.8865L23.9943 21.6409" stroke="#445092" stroke-width="1.75" stroke-linecap="round"/>
<path d="M13.7539 12.1719H12.2476C11.4585 12.1719 10.8164 11.5297 10.8164 10.7407C10.8164 9.95157 11.4586 9.30942 12.2476 9.30942H15.2601C15.7175 9.30942 16.0883 8.93865 16.0883 8.4813C16.0883 8.02395 15.7175 7.65317 15.2601 7.65317H13.8289V6.22192C13.8289 5.76458 13.4581 5.3938 13.0008 5.3938C12.5434 5.3938 12.1726 5.76458 12.1726 6.22192V7.65407C10.5046 7.69405 9.16016 9.06322 9.16016 10.7407C9.16016 12.4432 10.5451 13.8281 12.2477 13.8281H13.7539C14.543 13.8281 15.1851 14.4703 15.1851 15.2594C15.1851 16.0484 14.543 16.6906 13.7539 16.6906H10.7414C10.2841 16.6906 9.9133 17.0614 9.9133 17.5188C9.9133 17.9761 10.2841 18.3469 10.7414 18.3469H12.1726V19.7782C12.1726 20.2355 12.5434 20.6063 13.0008 20.6063C13.4581 20.6063 13.8289 20.2355 13.8289 19.7782V18.346C15.4969 18.306 16.8414 16.9368 16.8414 15.2594C16.8414 13.5568 15.4564 12.1719 13.7539 12.1719Z" fill="#F24747" stroke="#F24747" stroke-width="0.25"/>
</svg>
