<svg width="26" height="26" viewBox="0 0 26 26" fill="none" xmlns="http://www.w3.org/2000/svg">
<path d="M4 22.5H6C6.55228 22.5 7 22.0523 7 21.5V10C7 9.44772 6.55228 9 6 9H4M4 22.5H2C1.44772 22.5 1 22.0523 1 21.5V10C1 9.44772 1.44772 9 2 9H4M4 22.5V25M4 9V4" stroke="#445092" stroke-width="1.75" stroke-linecap="round"/>
<path d="M13 17H15C15.5523 17 16 16.5523 16 16V10C16 9.44772 15.5523 9 15 9H13M13 17H11C10.4477 17 10 16.5523 10 16V10C10 9.44772 10.4477 9 11 9H13M13 17V22.5M13 9V7" stroke="#F24747" stroke-width="1.75" stroke-linecap="round"/>
<path d="M22 17H24C24.5523 17 25 16.5523 25 16V5C25 4.44772 24.5523 4 24 4H22M22 17H20C19.4477 17 19 16.5523 19 16V5C19 4.44772 19.4477 4 20 4H22M22 17V19M22 4V1.5" stroke="#445092" stroke-width="1.75" stroke-linecap="round"/>
</svg>
