<svg width="26" height="26" viewBox="0 0 26 26" fill="none" xmlns="http://www.w3.org/2000/svg">
<rect x="1" y="1" width="24" height="24" rx="2" fill="white" stroke="#445092" stroke-width="2"/>
<rect x="11" y="11" width="4" height="4" rx="2" fill="#F24747"/>
<path d="M13 20C9.13401 20 6 16.866 6 13M13 20C16.866 20 20 16.866 20 13M13 20V18.2M6 13C6 9.13401 9.13401 6 13 6M6 13H7.8M20 13C20 9.13401 16.866 6 13 6M20 13H18.2M13 6V7.8" stroke="#445092" stroke-width="2" stroke-linecap="round"/>
<path d="M8.05025 17.9497C5.31658 15.2161 5.31658 10.7839 8.05025 8.05024M8.05025 17.9497C10.7839 20.6834 15.2161 20.6834 17.9497 17.9497M8.05025 17.9497L9.32304 16.6769M8.05025 8.05024C10.7839 5.31657 15.2161 5.31657 17.9497 8.05024M8.05025 8.05024L9.32304 9.32303M17.9497 17.9497C20.6834 15.2161 20.6834 10.7839 17.9497 8.05024M17.9497 17.9497L16.677 16.6769M17.9497 8.05024L16.677 9.32303" stroke="#445092" stroke-width="2" stroke-linecap="round"/>
</svg>
