<svg width="24" height="26" viewBox="0 0 24 26" fill="none" xmlns="http://www.w3.org/2000/svg">
<rect x="2" y="11" width="20" height="14" rx="2" stroke="#445092" stroke-width="2"/>
<path d="M12 15C10.8954 15 10 15.8954 10 17C10 17.7403 10.4022 18.3866 11 18.7324V20C11 20.5523 11.4477 21 12 21C12.5523 21 13 20.5523 13 20V18.7324C13.5978 18.3866 14 17.7403 14 17C14 15.8954 13.1046 15 12 15Z" fill="#F24747"/>
<path d="M6 7C6 3.68629 8.68629 1 12 1V1C15.3137 1 18 3.68629 18 7V11H6V7Z" stroke="#445092" stroke-width="2"/>
</svg>
