<svg width="26" height="26" viewBox="0 0 26 26" fill="none" xmlns="http://www.w3.org/2000/svg">
<path d="M13 1.1C13 1.04477 12.9547 0.999959 12.8995 1.00041C6.31836 1.05439 1 6.40611 1 13C1 19.6274 6.37258 25 13 25C19.6274 25 25 19.6274 25 13C25 11.3275 24.6578 9.73483 24.0397 8.28831C24.018 8.23754 23.959 8.21448 23.9084 8.23658L13.14 12.9389C13.074 12.9677 13 12.9193 13 12.8472V1.1Z" stroke="#F24747" stroke-width="2"/>
<path d="M13 1.1C13 1.04477 12.9547 0.999959 12.8995 1.00041C6.31836 1.05439 1 6.40611 1 13C1 19.6274 6.37258 25 13 25C16.2777 25 19.2485 23.6859 21.4143 21.5557C21.4537 21.517 21.4536 21.4536 21.4146 21.4146L13.0293 13.0293C13.0105 13.0105 13 12.9851 13 12.9586V1.1Z" stroke="#445092" stroke-width="2"/>
</svg>
